<mxfile host="Electron" agent="Mozilla/5.0 (Windows NT 10.0; Win64; x64) AppleWebKit/537.36 (KHTML, like Gecko) draw.io/24.7.17 Chrome/128.0.6613.36 Electron/32.0.1 Safari/537.36" version="24.7.17">
  <diagram name="Página-1" id="_k0i-jU0oLAjrkkL1CsF">
    <mxGraphModel dx="1600" dy="967" grid="1" gridSize="10" guides="1" tooltips="1" connect="1" arrows="1" fold="1" page="1" pageScale="1" pageWidth="827" pageHeight="1169" math="0" shadow="0">
      <root>
        <mxCell id="0" />
        <mxCell id="1" parent="0" />
        <mxCell id="kLVJOYmRNfKPxPnpFc6V-1" value="Presentación" style="shape=folder;fontStyle=1;spacingTop=10;tabWidth=40;tabHeight=14;tabPosition=left;html=1;whiteSpace=wrap;verticalAlign=top;" vertex="1" parent="1">
          <mxGeometry x="10" y="30" width="230" height="990" as="geometry" />
        </mxCell>
        <mxCell id="kLVJOYmRNfKPxPnpFc6V-2" value="Interfaz" style="shape=folder;fontStyle=1;spacingTop=10;tabWidth=40;tabHeight=14;tabPosition=left;html=1;whiteSpace=wrap;verticalAlign=top;fillColor=#b1ddf0;strokeColor=#10739e;" vertex="1" parent="1">
          <mxGeometry x="25" y="70" width="200" height="50" as="geometry" />
        </mxCell>
        <mxCell id="kLVJOYmRNfKPxPnpFc6V-3" value="&lt;p style=&quot;margin:0px;margin-top:4px;text-align:center;&quot;&gt;&lt;b&gt;Coordinador&lt;/b&gt;&lt;/p&gt;&lt;hr size=&quot;1&quot; style=&quot;border-style:solid;&quot;&gt;&lt;p style=&quot;margin:0px;margin-left:4px;&quot;&gt;+ Pagina Principal&lt;/p&gt;&lt;p style=&quot;margin:0px;margin-left:4px;&quot;&gt;- Gestionar Información personal&lt;/p&gt;&lt;p style=&quot;margin:0px;margin-left:4px;&quot;&gt;+ Gestión módulo de usuarios&lt;/p&gt;&lt;p style=&quot;margin:0px;margin-left:4px;&quot;&gt;+ Gestión módulo de proyectos&lt;/p&gt;&lt;p style=&quot;margin:0px;margin-left:4px;&quot;&gt;+ Gestión módulo de semilleros&lt;/p&gt;&lt;p style=&quot;margin:0px;margin-left:4px;&quot;&gt;+ Gestión módulo de publicaciones&lt;/p&gt;&lt;hr size=&quot;1&quot; style=&quot;border-style:solid;&quot;&gt;&lt;p style=&quot;margin:0px;margin-left:4px;&quot;&gt;+ Acceso_toda_la_pagina()&lt;/p&gt;&lt;p style=&quot;margin:0px;margin-left:4px;&quot;&gt;+ Gestionar_informacion()&lt;/p&gt;&lt;p style=&quot;margin:0px;margin-left:4px;&quot;&gt;+ Generar_informes()&lt;br&gt;&lt;/p&gt;" style="verticalAlign=top;align=left;overflow=fill;html=1;whiteSpace=wrap;fillColor=#b1ddf0;strokeColor=#10739e;" vertex="1" parent="1">
          <mxGeometry x="25" y="110" width="200" height="180" as="geometry" />
        </mxCell>
        <mxCell id="kLVJOYmRNfKPxPnpFc6V-4" value="Interfaz" style="shape=folder;fontStyle=1;spacingTop=10;tabWidth=40;tabHeight=14;tabPosition=left;html=1;whiteSpace=wrap;verticalAlign=top;fillColor=#b0e3e6;strokeColor=#0e8088;" vertex="1" parent="1">
          <mxGeometry x="25" y="330" width="200" height="50" as="geometry" />
        </mxCell>
        <mxCell id="kLVJOYmRNfKPxPnpFc6V-5" value="&lt;p style=&quot;margin:0px;margin-top:4px;text-align:center;&quot;&gt;&lt;b&gt;Docente&lt;/b&gt;&lt;/p&gt;&lt;hr size=&quot;1&quot; style=&quot;border-style:solid;&quot;&gt;&lt;p style=&quot;margin:0px;margin-left:4px;&quot;&gt;+ Pagina Principal&lt;/p&gt;&lt;p style=&quot;margin:0px;margin-left:4px;&quot;&gt;+ Perfil&lt;/p&gt;&lt;p style=&quot;margin: 0px 0px 0px 4px;&quot;&gt;- Gestionar Información personal&lt;/p&gt;&lt;p style=&quot;margin:0px;margin-left:4px;&quot;&gt;&lt;span style=&quot;background-color: initial;&quot;&gt;# Gestión módulo de proyectos&lt;/span&gt;&lt;br&gt;&lt;/p&gt;&lt;p style=&quot;margin:0px;margin-left:4px;&quot;&gt;# Gestión módulo de semilleros&lt;/p&gt;&lt;p style=&quot;margin:0px;margin-left:4px;&quot;&gt;# Gestión módulo de publicaciones&lt;/p&gt;&lt;hr size=&quot;1&quot; style=&quot;border-style:solid;&quot;&gt;&lt;p style=&quot;margin:0px;margin-left:4px;&quot;&gt;&lt;span style=&quot;background-color: initial;&quot;&gt;# Inhabilitar_usuario)&lt;/span&gt;&lt;/p&gt;&lt;p style=&quot;margin:0px;margin-left:4px;&quot;&gt;- Gestionar_informacion()&lt;/p&gt;" style="verticalAlign=top;align=left;overflow=fill;html=1;whiteSpace=wrap;fillColor=#b0e3e6;strokeColor=#0e8088;" vertex="1" parent="1">
          <mxGeometry x="25" y="370" width="200" height="160" as="geometry" />
        </mxCell>
        <mxCell id="kLVJOYmRNfKPxPnpFc6V-6" value="Interfaz" style="shape=folder;fontStyle=1;spacingTop=10;tabWidth=40;tabHeight=14;tabPosition=left;html=1;whiteSpace=wrap;verticalAlign=top;fillColor=#cce5ff;strokeColor=#36393d;" vertex="1" parent="1">
          <mxGeometry x="25" y="560" width="200" height="50" as="geometry" />
        </mxCell>
        <mxCell id="kLVJOYmRNfKPxPnpFc6V-7" value="&lt;p style=&quot;margin:0px;margin-top:4px;text-align:center;&quot;&gt;&lt;b&gt;Estudiante&lt;/b&gt;&lt;/p&gt;&lt;hr size=&quot;1&quot; style=&quot;border-style:solid;&quot;&gt;&lt;p style=&quot;margin:0px;margin-left:4px;&quot;&gt;+ Pagina Principal&lt;/p&gt;&lt;p style=&quot;margin:0px;margin-left:4px;&quot;&gt;+ Perfil&lt;/p&gt;&lt;p style=&quot;margin: 0px 0px 0px 4px;&quot;&gt;- Gestionar Información personal&lt;/p&gt;&lt;p style=&quot;margin:0px;margin-left:4px;&quot;&gt;# Gestión módulo de proyectos&lt;/p&gt;&lt;p style=&quot;margin:0px;margin-left:4px;&quot;&gt;# Consultar y actualizar semillero&lt;/p&gt;&lt;p style=&quot;margin:0px;margin-left:4px;&quot;&gt;# Gestión módulo de publicaciones&lt;/p&gt;&lt;hr size=&quot;1&quot; style=&quot;border-style:solid;&quot;&gt;&lt;p style=&quot;margin: 0px 0px 0px 4px;&quot;&gt;# Inhabilitar_usuario()&lt;/p&gt;&lt;p style=&quot;margin:0px;margin-left:4px;&quot;&gt;- Gestionar_informacion()&lt;/p&gt;" style="verticalAlign=top;align=left;overflow=fill;html=1;whiteSpace=wrap;fillColor=#cce5ff;strokeColor=#36393d;" vertex="1" parent="1">
          <mxGeometry x="25" y="600" width="200" height="160" as="geometry" />
        </mxCell>
        <mxCell id="kLVJOYmRNfKPxPnpFc6V-8" value="Interfaz" style="shape=folder;fontStyle=1;spacingTop=10;tabWidth=40;tabHeight=14;tabPosition=left;html=1;whiteSpace=wrap;verticalAlign=top;fillColor=#dae8fc;strokeColor=#6c8ebf;" vertex="1" parent="1">
          <mxGeometry x="25" y="790" width="200" height="50" as="geometry" />
        </mxCell>
        <mxCell id="kLVJOYmRNfKPxPnpFc6V-9" value="&lt;p style=&quot;margin:0px;margin-top:4px;text-align:center;&quot;&gt;&lt;b&gt;Cliente&lt;/b&gt;&lt;/p&gt;&lt;hr size=&quot;1&quot; style=&quot;border-style:solid;&quot;&gt;&lt;p style=&quot;margin:0px;margin-left:4px;&quot;&gt;+ Pagina Principal&lt;/p&gt;&lt;p style=&quot;margin:0px;margin-left:4px;&quot;&gt;+ Perfil&lt;/p&gt;&lt;p style=&quot;margin: 0px 0px 0px 4px;&quot;&gt;- Gestionar Información personal&lt;/p&gt;&lt;p style=&quot;margin:0px;margin-left:4px;&quot;&gt;# Consultar proyectos&lt;/p&gt;&lt;p style=&quot;margin:0px;margin-left:4px;&quot;&gt;# Consultar semilleros&lt;/p&gt;&lt;hr size=&quot;1&quot; style=&quot;border-style:solid;&quot;&gt;&lt;p style=&quot;margin:0px;margin-left:4px;&quot;&gt;# Inhabilitar_usuario()&lt;/p&gt;&lt;p style=&quot;margin:0px;margin-left:4px;&quot;&gt;- Gestionar_informacion()&lt;/p&gt;&lt;p style=&quot;margin:0px;margin-left:4px;&quot;&gt;+ Registrarse()&lt;br&gt;&lt;/p&gt;" style="verticalAlign=top;align=left;overflow=fill;html=1;whiteSpace=wrap;fillColor=#dae8fc;strokeColor=#6c8ebf;" vertex="1" parent="1">
          <mxGeometry x="25" y="830" width="200" height="160" as="geometry" />
        </mxCell>
        <mxCell id="kLVJOYmRNfKPxPnpFc6V-10" value="Procesos del Negocio" style="shape=folder;fontStyle=1;spacingTop=10;tabWidth=40;tabHeight=14;tabPosition=left;html=1;whiteSpace=wrap;verticalAlign=top;" vertex="1" parent="1">
          <mxGeometry x="240" y="30" width="580" height="990" as="geometry" />
        </mxCell>
        <mxCell id="kLVJOYmRNfKPxPnpFc6V-11" value="Servicios de la lógica del negocio" style="shape=folder;fontStyle=1;spacingTop=10;tabWidth=40;tabHeight=14;tabPosition=left;html=1;whiteSpace=wrap;verticalAlign=top;" vertex="1" parent="1">
          <mxGeometry x="260" y="430" width="540" height="390" as="geometry" />
        </mxCell>
        <mxCell id="kLVJOYmRNfKPxPnpFc6V-12" value="Servicios del Sistema" style="shape=folder;fontStyle=1;spacingTop=10;tabWidth=40;tabHeight=14;tabPosition=left;html=1;whiteSpace=wrap;verticalAlign=top;" vertex="1" parent="1">
          <mxGeometry x="260" y="80" width="540" height="340" as="geometry" />
        </mxCell>
        <mxCell id="kLVJOYmRNfKPxPnpFc6V-19" value="&lt;p style=&quot;margin:0px;margin-top:4px;text-align:center;&quot;&gt;&lt;i&gt;Validación de usuarios&lt;/i&gt;&lt;/p&gt;&lt;hr size=&quot;1&quot; style=&quot;border-style:solid;&quot;&gt;&lt;p style=&quot;margin:0px;margin-left:4px;&quot;&gt;+ S&lt;span style=&quot;background-color: initial;&quot;&gt;esionesActivas&lt;/span&gt;&lt;/p&gt;&lt;p style=&quot;margin:0px;margin-left:4px;&quot;&gt;+ ReglasDeAutenticación&lt;/p&gt;&lt;hr size=&quot;1&quot; style=&quot;border-style:solid;&quot;&gt;&lt;p style=&quot;margin:0px;margin-left:4px;&quot;&gt;+ I&lt;span style=&quot;background-color: initial;&quot;&gt;niciarSesion(usuario, contraseña)&lt;/span&gt;&lt;/p&gt;&lt;p style=&quot;margin:0px;margin-left:4px;&quot;&gt;+ validarUsuario()&lt;/p&gt;&lt;p style=&quot;margin:0px;margin-left:4px;&quot;&gt;+ CerrarSesion()&lt;/p&gt;&lt;p style=&quot;margin:0px;margin-left:4px;&quot;&gt;&lt;br&gt;&lt;/p&gt;" style="verticalAlign=top;align=left;overflow=fill;html=1;whiteSpace=wrap;" vertex="1" parent="1">
          <mxGeometry x="480" y="132.5" width="146" height="135" as="geometry" />
        </mxCell>
        <mxCell id="kLVJOYmRNfKPxPnpFc6V-22" value="&lt;p style=&quot;margin:0px;margin-top:4px;text-align:center;&quot;&gt;&lt;i&gt;Gestión de semilleros&lt;/i&gt;&lt;/p&gt;&lt;hr size=&quot;1&quot; style=&quot;border-style:solid;&quot;&gt;&lt;p style=&quot;margin:0px;margin-left:4px;&quot;&gt;+ ListaSemilleros&lt;/p&gt;&lt;p style=&quot;margin:0px;margin-left:4px;&quot;&gt;+ ReglasDePermisos&lt;/p&gt;&lt;hr size=&quot;1&quot; style=&quot;border-style:solid;&quot;&gt;&lt;p style=&quot;margin:0px;margin-left:4px;&quot;&gt;+ CrearSemillero()&lt;/p&gt;&lt;p style=&quot;margin:0px;margin-left:4px;&quot;&gt;+ ConsultarSemillero()&lt;/p&gt;&lt;p style=&quot;margin:0px;margin-left:4px;&quot;&gt;+ ActualizarSemillero()&lt;/p&gt;&lt;p style=&quot;margin:0px;margin-left:4px;&quot;&gt;+ InhabilitarSemillero()&lt;/p&gt;" style="verticalAlign=top;align=left;overflow=fill;html=1;whiteSpace=wrap;" vertex="1" parent="1">
          <mxGeometry x="282.5" y="470" width="140" height="140" as="geometry" />
        </mxCell>
        <mxCell id="kLVJOYmRNfKPxPnpFc6V-23" value="&lt;p style=&quot;margin:0px;margin-top:4px;text-align:center;&quot;&gt;&lt;i&gt;Gestión de usuarios&lt;/i&gt;&lt;/p&gt;&lt;hr size=&quot;1&quot; style=&quot;border-style:solid;&quot;&gt;&lt;p style=&quot;margin:0px;margin-left:4px;&quot;&gt;+ ListaUsuarios&lt;/p&gt;&lt;p style=&quot;margin:0px;margin-left:4px;&quot;&gt;+ ReglasDeValidación&lt;/p&gt;&lt;hr size=&quot;1&quot; style=&quot;border-style:solid;&quot;&gt;&lt;p style=&quot;margin:0px;margin-left:4px;&quot;&gt;&amp;nbsp;+CrearUsuario()&lt;/p&gt;&lt;p style=&quot;margin:0px;margin-left:4px;&quot;&gt;+ ConsultarUsuario()&lt;/p&gt;&lt;p style=&quot;margin:0px;margin-left:4px;&quot;&gt;+ ActualizarUsuario()&lt;/p&gt;&lt;p style=&quot;margin:0px;margin-left:4px;&quot;&gt;+ InhabilitarUsuario()&lt;/p&gt;" style="verticalAlign=top;align=left;overflow=fill;html=1;whiteSpace=wrap;" vertex="1" parent="1">
          <mxGeometry x="637.5" y="470" width="140" height="140" as="geometry" />
        </mxCell>
        <mxCell id="kLVJOYmRNfKPxPnpFc6V-24" value="&lt;p style=&quot;margin:0px;margin-top:4px;text-align:center;&quot;&gt;&lt;i&gt;Gestión de publicaciones&lt;/i&gt;&lt;/p&gt;&lt;hr size=&quot;1&quot; style=&quot;border-style:solid;&quot;&gt;&lt;p style=&quot;margin:0px;margin-left:4px;&quot;&gt;+ ListaPublicaciones&lt;/p&gt;&lt;p style=&quot;margin:0px;margin-left:4px;&quot;&gt;+ ReglasDeModeración&lt;/p&gt;&lt;p style=&quot;margin:0px;margin-left:4px;&quot;&gt;+ AutoresPublicaciones&lt;/p&gt;&lt;hr size=&quot;1&quot; style=&quot;border-style:solid;&quot;&gt;&lt;p style=&quot;margin:0px;margin-left:4px;&quot;&gt;+ CrearPublicacion()&lt;/p&gt;&lt;p style=&quot;margin:0px;margin-left:4px;&quot;&gt;+ ConsultarPublicacion()&lt;/p&gt;&lt;p style=&quot;margin:0px;margin-left:4px;&quot;&gt;+ ActualizarPublicacion()&lt;/p&gt;&lt;p style=&quot;margin:0px;margin-left:4px;&quot;&gt;+ InhabilitarPublicacion()&lt;/p&gt;&lt;p style=&quot;margin:0px;margin-left:4px;&quot;&gt;&lt;br&gt;&lt;/p&gt;" style="verticalAlign=top;align=left;overflow=fill;html=1;whiteSpace=wrap;" vertex="1" parent="1">
          <mxGeometry x="295" y="660" width="140" height="130" as="geometry" />
        </mxCell>
        <mxCell id="kLVJOYmRNfKPxPnpFc6V-25" value="&lt;p style=&quot;margin:0px;margin-top:4px;text-align:center;&quot;&gt;&lt;i&gt;Gestión de proyectos&lt;/i&gt;&lt;/p&gt;&lt;hr size=&quot;1&quot; style=&quot;border-style:solid;&quot;&gt;&lt;p style=&quot;margin:0px;margin-left:4px;&quot;&gt;+ ListaProyectos&lt;/p&gt;&lt;p style=&quot;margin:0px;margin-left:4px;&quot;&gt;+ RestriccionesActualizacion&lt;/p&gt;&lt;p style=&quot;margin:0px;margin-left:4px;&quot;&gt;+ ResponsablesProyectos&lt;/p&gt;&lt;hr size=&quot;1&quot; style=&quot;border-style:solid;&quot;&gt;&lt;p style=&quot;margin:0px;margin-left:4px;&quot;&gt;&lt;span style=&quot;background-color: initial;&quot;&gt;+ CrearProyecto&lt;/span&gt;&lt;/p&gt;&lt;p style=&quot;margin:0px;margin-left:4px;&quot;&gt;+ ConsultarProyecto&lt;/p&gt;&lt;p style=&quot;margin:0px;margin-left:4px;&quot;&gt;+ ActualizarProyecto()&lt;/p&gt;&lt;p style=&quot;margin:0px;margin-left:4px;&quot;&gt;+ InhabilitarProyecto()&lt;/p&gt;&lt;p style=&quot;margin:0px;margin-left:4px;&quot;&gt;&lt;br&gt;&lt;/p&gt;" style="verticalAlign=top;align=left;overflow=fill;html=1;whiteSpace=wrap;" vertex="1" parent="1">
          <mxGeometry x="451.5" y="540" width="160" height="150" as="geometry" />
        </mxCell>
        <mxCell id="kLVJOYmRNfKPxPnpFc6V-26" value="&lt;p style=&quot;margin:0px;margin-top:4px;text-align:center;&quot;&gt;&lt;i&gt;Gestión de usuarios&lt;/i&gt;&lt;/p&gt;&lt;hr size=&quot;1&quot; style=&quot;border-style:solid;&quot;&gt;&lt;p style=&quot;margin:0px;margin-left:4px;&quot;&gt;+ UsuariosRegistrados&lt;/p&gt;&lt;p style=&quot;margin:0px;margin-left:4px;&quot;&gt;+ PermisosEspeciales&lt;/p&gt;&lt;hr size=&quot;1&quot; style=&quot;border-style:solid;&quot;&gt;&lt;p style=&quot;margin:0px;margin-left:4px;&quot;&gt;+ R&lt;span style=&quot;background-color: initial;&quot;&gt;egistrarUsuario()&lt;/span&gt;&lt;/p&gt;&lt;p style=&quot;margin:0px;margin-left:4px;&quot;&gt;+ ConsultarUsuario()&amp;nbsp;&lt;/p&gt;&lt;p style=&quot;margin:0px;margin-left:4px;&quot;&gt;+ A&lt;span style=&quot;background-color: initial;&quot;&gt;ctualizarUsuario()&amp;nbsp;&lt;/span&gt;&lt;/p&gt;&lt;p style=&quot;margin:0px;margin-left:4px;&quot;&gt;+ InhabilitarUsuario()&lt;/p&gt;" style="verticalAlign=top;align=left;overflow=fill;html=1;whiteSpace=wrap;" vertex="1" parent="1">
          <mxGeometry x="637.5" y="660" width="140" height="130" as="geometry" />
        </mxCell>
        <mxCell id="kLVJOYmRNfKPxPnpFc6V-27" value="&lt;p style=&quot;margin:0px;margin-top:4px;text-align:center;&quot;&gt;&lt;i&gt;Generar Informes&lt;/i&gt;&lt;/p&gt;&lt;hr size=&quot;1&quot; style=&quot;border-style:solid;&quot;&gt;&lt;p style=&quot;margin:0px;margin-left:4px;&quot;&gt;+ InformesDetallados&lt;/p&gt;&lt;p style=&quot;margin:0px;margin-left:4px;&quot;&gt;+ InformesEstadisticos&lt;/p&gt;&lt;hr size=&quot;1&quot; style=&quot;border-style:solid;&quot;&gt;&lt;p style=&quot;margin:0px;margin-left:4px;&quot;&gt;+ GenerarInformeUsuarios()&lt;/p&gt;&lt;p style=&quot;margin:0px;margin-left:4px;&quot;&gt;&lt;span style=&quot;background-color: initial;&quot;&gt;+ GenerarInformeProyectos()&lt;/span&gt;&lt;/p&gt;&lt;p style=&quot;margin:0px;margin-left:4px;&quot;&gt;+ GenerarInformeSemilleros()&lt;/p&gt;&lt;p style=&quot;margin:0px;margin-left:4px;&quot;&gt;+ GenerarInformePublicaciones()&lt;/p&gt;" style="verticalAlign=top;align=left;overflow=fill;html=1;whiteSpace=wrap;" vertex="1" parent="1">
          <mxGeometry x="270" y="132.5" width="190" height="135" as="geometry" />
        </mxCell>
        <mxCell id="kLVJOYmRNfKPxPnpFc6V-29" value="&lt;p style=&quot;margin:0px;margin-top:4px;text-align:center;&quot;&gt;&lt;i&gt;Control de Permisos&lt;/i&gt;&lt;/p&gt;&lt;hr size=&quot;1&quot; style=&quot;border-style:solid;&quot;&gt;&lt;p style=&quot;margin:0px;margin-left:4px;&quot;&gt;+ T&lt;span style=&quot;background-color: initial;&quot;&gt;ablaPermisos&lt;/span&gt;&lt;/p&gt;&lt;p style=&quot;margin:0px;margin-left:4px;&quot;&gt;+ RolesDefinidos&lt;/p&gt;&lt;hr size=&quot;1&quot; style=&quot;border-style:solid;&quot;&gt;&lt;p style=&quot;margin:0px;margin-left:4px;&quot;&gt;+ A&lt;span style=&quot;background-color: initial;&quot;&gt;signarPermiso()&lt;/span&gt;&lt;/p&gt;&lt;p style=&quot;margin:0px;margin-left:4px;&quot;&gt;+ RevocarPermiso()&lt;/p&gt;&lt;p style=&quot;margin:0px;margin-left:4px;&quot;&gt;+ ValidarPermiso()&lt;/p&gt;&lt;p style=&quot;margin:0px;margin-left:4px;&quot;&gt;&lt;br&gt;&lt;/p&gt;" style="verticalAlign=top;align=left;overflow=fill;html=1;whiteSpace=wrap;" vertex="1" parent="1">
          <mxGeometry x="640" y="132.5" width="146" height="120" as="geometry" />
        </mxCell>
        <mxCell id="kLVJOYmRNfKPxPnpFc6V-30" value="&lt;p style=&quot;margin:0px;margin-top:4px;text-align:center;&quot;&gt;&lt;i&gt;Gestión de contraseñas&lt;/i&gt;&lt;/p&gt;&lt;hr size=&quot;1&quot; style=&quot;border-style:solid;&quot;&gt;&lt;p style=&quot;margin:0px;margin-left:4px;&quot;&gt;+ DuracionTokenValidacion&lt;/p&gt;&lt;hr size=&quot;1&quot; style=&quot;border-style:solid;&quot;&gt;&lt;p style=&quot;margin:0px;margin-left:4px;&quot;&gt;+ EnviarCorreoRecuperacion()&lt;/p&gt;&lt;p style=&quot;margin:0px;margin-left:4px;&quot;&gt;+ ValidacionTokenRecuperacion()&lt;/p&gt;&lt;p style=&quot;margin:0px;margin-left:4px;&quot;&gt;+ Actualizarcontraseña()&lt;/p&gt;" style="verticalAlign=top;align=left;overflow=fill;html=1;whiteSpace=wrap;" vertex="1" parent="1">
          <mxGeometry x="431" y="290" width="198" height="110" as="geometry" />
        </mxCell>
        <mxCell id="kLVJOYmRNfKPxPnpFc6V-34" value="Conexion con la Base de Datos" style="shape=folder;fontStyle=1;spacingTop=10;tabWidth=40;tabHeight=14;tabPosition=left;html=1;whiteSpace=wrap;verticalAlign=top;fillColor=#f5f5f5;strokeColor=#666666;gradientColor=#b3b3b3;" vertex="1" parent="1">
          <mxGeometry x="400" y="830" width="200" height="50" as="geometry" />
        </mxCell>
        <mxCell id="kLVJOYmRNfKPxPnpFc6V-35" value="&lt;p style=&quot;margin:0px;margin-top:4px;text-align:center;&quot;&gt;&lt;b&gt;ADO.NET&lt;/b&gt;&lt;/p&gt;&lt;hr size=&quot;1&quot; style=&quot;border-style:solid;&quot;&gt;&lt;p style=&quot;margin:0px;margin-left:4px;&quot;&gt;+ DatosAlmacenados()&lt;/p&gt;&lt;p style=&quot;margin:0px;margin-left:4px;&quot;&gt;+ Clases&lt;/p&gt;&lt;p style=&quot;margin: 0px 0px 0px 4px;&quot;&gt;+ DefinicionRoles&lt;/p&gt;&lt;hr size=&quot;1&quot; style=&quot;border-style:solid;&quot;&gt;&lt;p style=&quot;margin:0px;margin-left:4px;&quot;&gt;+ Procedimientos_Almacenados()&lt;/p&gt;&lt;p style=&quot;margin:0px;margin-left:4px;&quot;&gt;+ Acceder_Datos()&lt;/p&gt;&lt;p style=&quot;margin:0px;margin-left:4px;&quot;&gt;+ Acceder_Tablas()&lt;br&gt;&lt;/p&gt;" style="verticalAlign=top;align=left;overflow=fill;html=1;whiteSpace=wrap;fillColor=#f5f5f5;strokeColor=#666666;gradientColor=#b3b3b3;" vertex="1" parent="1">
          <mxGeometry x="400" y="870" width="200" height="140" as="geometry" />
        </mxCell>
        <mxCell id="kLVJOYmRNfKPxPnpFc6V-37" value="" style="endArrow=open;endSize=12;dashed=1;html=1;rounded=0;exitX=-0.001;exitY=0.039;exitDx=0;exitDy=0;exitPerimeter=0;entryX=0.513;entryY=0.05;entryDx=0;entryDy=0;entryPerimeter=0;" edge="1" parent="1" source="kLVJOYmRNfKPxPnpFc6V-10" target="kLVJOYmRNfKPxPnpFc6V-12">
          <mxGeometry width="160" relative="1" as="geometry">
            <mxPoint x="291.5" y="70" as="sourcePoint" />
            <mxPoint x="451.5" y="70" as="targetPoint" />
            <Array as="points">
              <mxPoint x="537" y="70" />
            </Array>
          </mxGeometry>
        </mxCell>
        <mxCell id="kLVJOYmRNfKPxPnpFc6V-38" value="" style="endArrow=open;endSize=12;dashed=1;html=1;rounded=0;exitX=0.135;exitY=0.991;exitDx=0;exitDy=0;exitPerimeter=0;entryX=0.513;entryY=0.05;entryDx=0;entryDy=0;entryPerimeter=0;" edge="1" parent="1" source="kLVJOYmRNfKPxPnpFc6V-12">
          <mxGeometry width="160" relative="1" as="geometry">
            <mxPoint x="225" y="420" as="sourcePoint" />
            <mxPoint x="523" y="448" as="targetPoint" />
            <Array as="points">
              <mxPoint x="333" y="430" />
              <mxPoint x="523" y="430" />
            </Array>
          </mxGeometry>
        </mxCell>
        <mxCell id="kLVJOYmRNfKPxPnpFc6V-39" value="" style="endArrow=open;endSize=12;dashed=1;html=1;rounded=0;exitX=0.118;exitY=0.997;exitDx=0;exitDy=0;exitPerimeter=0;entryX=0.018;entryY=0.665;entryDx=0;entryDy=0;entryPerimeter=0;" edge="1" parent="1" source="kLVJOYmRNfKPxPnpFc6V-11" target="kLVJOYmRNfKPxPnpFc6V-35">
          <mxGeometry width="160" relative="1" as="geometry">
            <mxPoint x="340" y="880" as="sourcePoint" />
            <mxPoint x="500" y="880" as="targetPoint" />
            <Array as="points">
              <mxPoint x="324" y="963" />
            </Array>
          </mxGeometry>
        </mxCell>
        <mxCell id="kLVJOYmRNfKPxPnpFc6V-41" value="Base de Datos" style="shape=folder;fontStyle=1;spacingTop=10;tabWidth=40;tabHeight=14;tabPosition=left;html=1;whiteSpace=wrap;verticalAlign=top;" vertex="1" parent="1">
          <mxGeometry x="530" y="1030" width="288.5" height="130" as="geometry" />
        </mxCell>
        <mxCell id="kLVJOYmRNfKPxPnpFc6V-42" value="" style="verticalLabelPosition=bottom;aspect=fixed;html=1;shape=mxgraph.salesforce.data;" vertex="1" parent="1">
          <mxGeometry x="649.95" y="1090" width="48.6" height="60" as="geometry" />
        </mxCell>
        <mxCell id="kLVJOYmRNfKPxPnpFc6V-45" value="&lt;b&gt;&lt;font style=&quot;font-size: 13px;&quot;&gt;SQL Server&lt;/font&gt;&lt;/b&gt;" style="text;html=1;align=center;verticalAlign=middle;resizable=0;points=[];autosize=1;strokeColor=none;fillColor=none;" vertex="1" parent="1">
          <mxGeometry x="628.55" y="1060" width="90" height="30" as="geometry" />
        </mxCell>
        <mxCell id="kLVJOYmRNfKPxPnpFc6V-46" value="" style="endArrow=open;endSize=12;dashed=1;html=1;rounded=0;exitX=0;exitY=0;exitDx=0;exitDy=72;exitPerimeter=0;entryX=0.5;entryY=1;entryDx=0;entryDy=0;" edge="1" parent="1" source="kLVJOYmRNfKPxPnpFc6V-41" target="kLVJOYmRNfKPxPnpFc6V-35">
          <mxGeometry width="160" relative="1" as="geometry">
            <mxPoint x="300" y="1110" as="sourcePoint" />
            <mxPoint x="460" y="1110" as="targetPoint" />
            <Array as="points">
              <mxPoint x="500" y="1102" />
            </Array>
          </mxGeometry>
        </mxCell>
      </root>
    </mxGraphModel>
  </diagram>
</mxfile>
